/* XPM */
static char *_06d0d07e10842c8a9be3b0ecc3c7a31M0jeTGahNZaQaTVH[] = {
/* columns rows colors chars-per-pixel */
"64 64 14 1 ",
"  c None",
". c black",
"X c #391E0B",
"o c #613D24",
"O c #B71C1C",
"+ c #C62828",
"@ c #43A047",
"# c #4CAF50",
"$ c #66BB6A",
"% c #FFD600",
"& c #FFEA00",
"* c #C68642",
"= c #F1C27D",
"- c gray98",
/* pixels */
"                                                                ",
"                                                                ",
"                                                                ",
"                                                                ",
"                                                                ",
"                                                                ",
"                                                                ",
"                                                                ",
"                                                                ",
"                                                                ",
"                                                                ",
"                                                                ",
"                                                                ",
"                                                                ",
"                                                                ",
"                                                                ",
"                                                                ",
"                                                                ",
"                      .....................                     ",
"                      .....................                     ",
"                 .....===---==========---==......               ",
"                 .....===---==========---==......               ",
"               ..===--========---================..             ",
"               ..===--========---================..             ",
"               ..===--========---================..             ",
"            ...==========---==========---========--...          ",
"            ...==========---==========---========--...          ",
"            ...==---=============---=======---=====...          ",
"            ...==---=============---=======---=====...          ",
"            ...************************************...          ",
"            ...************************************...          ",
"               ..$$$+++++OOO$$@@@+++++OOO$$$$$@@@..             ",
"               ..$$$+++++OOO$$@@@+++++OOO$$$$$@@@..             ",
"            ...&&&&&%%%%%%%%%%%%%%%%%%%%%%%&&&&&&%%...          ",
"            ...&&&&&%%%%%%%%%%%%%%%%%%%%%%%&&&&&&%%...          ",
"            ...XXoooooooooooooooooooXX%%%%%XXXooooo...          ",
"            ...XXoooooooooooooooooooXX%%%%%XXXooooo...          ",
"            ...XXoooooooooooooooooooXX%%%%%XXXooooo...          ",
"               ..===================*****%%XXX***..             ",
"               ..===================*****%%XXX***..             ",
"            ...$$$$$$$$$$$$$$$$$$$$$$$###%%$$$$$$##...          ",
"            ...$$$$$$$$$$$$$$$$$$$$$$$###%%$$$$$$##...          ",
"            ...+++++++$$$$$$+++++++++++++%%++++++++...          ",
"            ...+++++++$$$$$$+++++++++++++%%++++++++...          ",
"               ..oooXXXXXoooooooooooooXXXXXoooooooo             ",
"               ..oooXXXXXoooooooooooooXXXXXoooooooo             ",
"            ...====================================...          ",
"            ...====================================...          ",
"            ...====================================...          ",
"            ...************************************...          ",
"            ...************************************...          ",
"               ....................................             ",
"               ....................................             ",
"                                                                ",
"                                                                ",
"                                                                ",
"                                                                ",
"                                                                ",
"                                                                ",
"                                                                ",
"                                                                ",
"                                                                ",
"                                                                ",
"                                                                "
};
