/* XPM */
static char *result[] = {
/* columns rows colors chars-per-pixel */
"64 64 5 1 ",
"  c #5D2C28",
". c #37474F",
"X c #8A4836",
"o c #BF6F4A",
"O c #E69C69",
/* pixels */
"................................................................",
"................................................................",
".XXXXXXXXXXXXXXXXXXXXXXXXXXXXXXXXXXXXXXXXXXXXXXXXXXXXXXXXXXXXXX.",
".XXXXXXXXXXXXXXXXXXXXXXXXXXXXXXXXXXXXXXXXXXXXXXXXXXXXXXXXXXXXXX.",
".XXXXXXXXXXXXXXXXXXXXXXXXXXXXXXXXXXXXXXXXXXXXXXXXXXXXXXXXXXXXXX.",
".XXXXXXXXXXXXXXXXXXXXXXXXXXXXXXXXXXXXXXXXXXXXXXXXXXXXXXXXXXXXXX.",
".XXXXXXXXXXXXXXXXXXXXXXXXXXXXXXXXXXXXXXXXXXXXXXXXXXXXXXXXXXXXXX.",
".XXXXXXXXXXXXXXXXXXXXXXXXXXXXXXXXXXXXXXXXXXXXXXXXXXXXXXXXXXXXXX.",
".XXXXXXXXXXXXXXXXXXXXXXXXXXXXXXXXXXXXXXXXXXXXXXXXXXXXXXXXXXXXXX.",
".XXXXXXXXXXXXXXXXXXXXXXXXXXXXXXXXXXXXXXXXXXXXXXXXXXXXXXXXXXXXXX.",
".XXXXXXXXXXXX                                      OOOOXXXXXXXX.",
".XXXXXXXXXXXX     oooooooo    oooooooo    oooooooooOOOOXXXXXXXX.",
".XXXXXXXXXXXX     oooooooo    oooooooo    oooooooooOOOOXXXXXXXX.",
".XXXXXXXXXXXX     oooooooo    oooooooo    oooooooooOOOOXXXXOOOO.",
".XXXXXXXXXXXX     oooooooo    oooooooo    oooooooooOOOOXXXXOOOO.",
".XXXXXXXXXXXX     oooooooo    oooooooo    oooooooooOOOOXXXX    .",
".XXXXXXXXXXXX     oooooooo    oooooooo    oooooooooOOOOXXXX    .",
".XXXXXXXXXXXX     oooooooo    oooooooo    oooooooooOOOOXXXX    .",
".XXXXXXXXXXXX     oooooooo    oooooooo    oooooooooOOOOXXXX    .",
".XXXXXXXXXXXX     oooooooo    oooooooo    oooooooooOOOOXXXX    .",
".XXXXXXXXXXXX     oooooooo    oooooooo    oooooooooOOOOXXXX    .",
".XXXXXXXXXXXX     oooooooo    oooooooo    oooooooooOOOOXXXX    .",
".XXXXXXXXXXXX     oooooooo    oooooooo    oooooooooOOOOXXXX    .",
".XXXXXXXXXXXX     oooooooo    oooooooo    oooooooooOOOOXXXXXXXX.",
".XXXXXXXXXXXX     oooooooo    oooooooo    oooooooooOOOOXXXXXXXX.",
".XXXXXXXXXXXX     oooooooo    oooooooo    oooooooooOOOOXXXXXXXX.",
".XXXXXXXXXXXX     oooooooo    oooooooo    oooooooooOOOOXXXXXXXX.",
".XXXXXXXXXXXX     OOOOOOOOOOOOOOOOOOOOOOOOOOOOOOOOOOOOOXXXXXXXX.",
".XXXXXXXXXXXX     OOOOOOOOOOOOOOOOOOOOOOOOOOOOOOOOOOOOOXXXXXXXX.",
".XXXXXXXXXXXXXXXXXXXXXXXXXXXXXXXXXXXXXXXXXXXXXXXXXXXXXXXXXXXXXX.",
".XXXXXXXXXXXXXXXXXXXXXXXXXXXXXXXXXXXXXXXXXXXXXXXXXXXXXXXXXXXXXX.",
".XXXXXXXXXXXXXXXXXXXXXXXXXXXXXXXXXXXXXXXXXXXXXXXXXXXXXXXXXXXXXX.",
".XXXXXXXXXXXXXXXXXXXXXXXXXXXXXXXXXXXXXXXXXXXXXXXXXXXXXXXXXXXXXX.",
".XXXXXXXXXXXXXXXXXXXXXXXXXXXXXXXXXXXXXXXXXXXXXXXXXXXXXXXXXXXXXX.",
".XXXXXXXXXXXXXXXXXXXXXXXXXXXXXXXXXXXXXXXXXXXXXXXXXXXXXXXXXXXXXX.",
".XXXXXXXXXXXXXXXXXXXXXXXXXXXXXXXXXXXXXXXXXXXXXXXXXXXXXXXXXXXXXX.",
".XXXXXXXXXXXXXXXXXXXXXXXXXXXXXXXXXXXXXXXXXXXXXXXXXXXXXXXXXXXXXX.",
".XXXXXXXXXXXXXXXXXXXXXXXXXXXXXXXXXXXXXXXXXXXXXXXXXXXXXXXXXXXXXX.",
".XXXXXXXXXXXX                                      OOOOXXXXXXXX.",
".XXXXXXXXXXXX                                      OOOOXXXXXXXX.",
".XXXXXXXXXXXX     oooooooo    oooooooo    oooooooooOOOOXXXXXXXX.",
".XXXXXXXXXXXX     oooooooo    oooooooo    oooooooooOOOOXXXXXXXX.",
".XXXXXXXXXXXX     oooooooo    oooooooo    oooooooooOOOOXXXXOOOO.",
".XXXXXXXXXXXX     oooooooo    oooooooo    oooooooooOOOOXXXXOOOO.",
".XXXXXXXXXXXX     oooooooo    oooooooo    oooooooooOOOOXXXX    .",
".XXXXXXXXXXXX     oooooooo    oooooooo    oooooooooOOOOXXXX    .",
".XXXXXXXXXXXX     oooooooo    oooooooo    oooooooooOOOOXXXX    .",
".XXXXXXXXXXXX     oooooooo    oooooooo    oooooooooOOOOXXXX    .",
".XXXXXXXXXXXX     oooooooo    oooooooo    oooooooooOOOOXXXX    .",
".XXXXXXXXXXXX     oooooooo    oooooooo    oooooooooOOOOXXXX    .",
".XXXXXXXXXXXX     oooooooo    oooooooo    oooooooooOOOOXXXX    .",
".XXXXXXXXXXXX     oooooooo    oooooooo    oooooooooOOOOXXXX    .",
".XXXXXXXXXXXX     oooooooo    oooooooo    oooooooooOOOOXXXXXXXX.",
".XXXXXXXXXXXX     oooooooo    oooooooo    oooooooooOOOOXXXXXXXX.",
".XXXXXXXXXXXX     oooooooo    oooooooo    oooooooooOOOOXXXXXXXX.",
".XXXXXXXXXXXX     OOOOOOOOOOOOOOOOOOOOOOOOOOOOOOOOOOOOOXXXXXXXX.",
".XXXXXXXXXXXX     OOOOOOOOOOOOOOOOOOOOOOOOOOOOOOOOOOOOOXXXXXXXX.",
".XXXXXXXXXXXXXXXXXXXXXXXXXXXXXXXXXXXXXXXXXXXXXXXXXXXXXXXXXXXXXX.",
".XXXXXXXXXXXXXXXXXXXXXXXXXXXXXXXXXXXXXXXXXXXXXXXXXXXXXXXXXXXXXX.",
".XXXXXXXXXXXXXXXXXXXXXXXXXXXXXXXXXXXXXXXXXXXXXXXXXXXXXXXXXXXXXX.",
".XXXXXXXXXXXXXXXXXXXXXXXXXXXXXXXXXXXXXXXXXXXXXXXXXXXXXXXXXXXXXX.",
".XXXXXXXXXXXXXXXXXXXXXXXXXXXXXXXXXXXXXXXXXXXXXXXXXXXXXXXXXXXXXX.",
".XXXXXXXXXXXXXXXXXXXXXXXXXXXXXXXXXXXXXXXXXXXXXXXXXXXXXXXXXXXXXX.",
"................................................................"
};
