/* XPM */
static char *a79f8b4e6ff74d54a25061000164db1aaI6LgstWxkE4ynEP[] = {
/* columns rows colors chars-per-pixel */
"64 64 6 1 ",
"  c None",
". c black",
"X c #E91E63",
"o c #FF9800",
"O c #FFC107",
"+ c white",
/* pixels */
"                                                                ",
"                                                                ",
"                                                                ",
"                                                                ",
"                                                                ",
"                                                                ",
"                           ..  ..                               ",
"                           ..  ..                               ",
"                           ..  ..                               ",
"                           ..........                           ",
"                           ..........                           ",
"        .....................OO..OOOO..                         ",
"        .....................OO..OOOO..                         ",
"    ....ooooooooOOO....ooOOOOOOOOOOOOOO..       ........        ",
"    ....ooooooooOOO....ooOOOOOOOOOOOOOO..       ........        ",
"  ..ooooooooooOOOOO............OOOO..OOOO..    .OOOOOOOO..      ",
"  ..ooooooooooOOOOO............OOOO..OOOO..    .OOOOOOOO..      ",
"  ..oooooooooooooOOOO....++....OOOO..OOOO..  ..OOOOOooOO..      ",
"  ..oooooooooooooOOOO....++....OOOO..OOOO..  ..OOOOOooOO..      ",
"  ..ooooooooooOOOOOOOOOOOOOOOOOOOOOOOOOOO....oooOOOOOOoo..      ",
"  ..ooooooooooOOOOOOOOOOOOOOOOOOOOOOOOOOO....oooOOOOOOoo..      ",
"    ..ooooooOOOOOOOOOOOOOOOOOOOOOOOOOOOOOOO....oOOOOOOoo..      ",
"    ..ooooooOOOOOOOOOOOOOOOOOOOOOOOOOOOOOOO....oOOOOOOoo..      ",
"      ..ooooooOOoooOOOOOOOO........OOOOOOOOOO..oOOOO....        ",
"        ..oooooooOOOOOOOO............OOOOOOOOOO.....            ",
"        ..oooooooOOOOOOOO............OOOOOOOOOO.....            ",
"          ..ooooOOOOOOOOO......++....OOOOOOOOOOOOO..  ......    ",
"          ..ooooOOOOOOOOO......++....OOOOOOOOOOOOO..  ......    ",
"          ..ooOOOOOOOOOOOOO..++++++OOOOOOOOOOOOOOO....OOOOOO..  ",
"          ..ooOOOOOOOOOOOOO..++++++OOOOOOOOOOOOOOO....OOOOOO..  ",
"          ..OOoooooOOOOOOOOOO..OOOOOOOO..OOOOOOo....OOOOOOOOOO..",
"          ..OOoooooOOOOOOOOOO..OOOOOOOO..OOOOOOo....OOOOOOOOOO..",
"          ..oooooOOOOOOOOOOOOOOOOOO..OO..OOOOoooooOOOOOOOOOOOO..",
"          ..oooooOOOOOOOOOOOOOOOOOO..OO..OOOOoooooOOOOOOOOOOOO..",
"          ..ooooOOOOOOOOOOOOOOOOOOO..OOOOOOOOoooOOOOOOOOOO....  ",
"          ..ooooOOOOOOOOOOOOOOOOOOO..OOOOOOOOoooOOOOOOOOOO....  ",
"          ..ooOOOOOOOOOOOOOOOOOOOOOOOOOOOOOOOOOOOOOOOO....      ",
"          ..ooOOOOOOOOOOOOOOOOOOOOOOOOOOOOOOOOOOOOOOOO....      ",
"        ..ooooOOOXXXXOOOOOOOOOOOOOOOOOOOOOOooooOOOOO..          ",
"        ..ooooOOOXXXXOOOOOOOOOOOOOOOOOOOOOOooooOOOOO..          ",
"        ..ooOOOOXXXXXXXOOOOOOOOOOOOOOOOOOOOOOOOOOOOO..          ",
"        ..ooOOOOXXXXXOOOO............OOOOOOOOOOOOOOO..          ",
"        ..ooOOOOXXXXXOOOO............OOOOOOOOOOOOOOO..          ",
"        ..ooooooOOOOO....    ..OOOOOOooooooOOOOOOOOOOO....      ",
"        ..ooooooOOOOO....    ..OOOOOOooooooOOOOOOOOOOO....      ",
"        .............        ..OOooOOOOoooooooooOOOOOO....      ",
"        .............        ..OOooOOOOoooooooooOOOOOO....      ",
"        ........             ....ooooOOOOOOOOOOOOOOOOO....      ",
"        ........             ....ooooOOOOOOOOOOOOOOOOO....      ",
"      ..OOOOOO...          ..oo..ooooooOOOOOOOOOOOOOOOOO..      ",
"      ..OOOOOO...          ..oo..ooooooOOOOOOOOOOOOOOOOO..      ",
"      ..OOOOOOooO..........OOoooo..ooooooOOOOOOOooOOOOOOOO..    ",
"      ..OOOOOOooO..........OOoooo..ooooooOOOOOOOooOOOOOOOO..    ",
"      ..OOOOooOOOooOOooOOooOOoooooo..OOOOOOOOoooooOOOOOOOOOO..  ",
"      ..OOOOooOOOooOOooOOooOOoooooo..OOOOOOOOoooooOOOOOOOOOO..  ",
"        ....OOOOOooOOooOOooOOOOoooo....oooooooooooooOOOOOOOO..  ",
"            ....oOOooOOooooooOO....    ........oooOOOOOOOOOO..  ",
"            ....oOOooOOooooooOO....    ........oooOOOOOOOOOO..  ",
"                ...............                .............    ",
"                ...............                .............    ",
"                                                                ",
"                                                                ",
"                                                                ",
"                                                                "
};
