/* XPM */
static char *d765abad79e947589f710aa00e669eb1nSJc2W0GZVkJFhpz[] = {
/* columns rows colors chars-per-pixel */
"64 64 6 1 ",
"  c None",
". c black",
"X c #E91E63",
"o c #FF9800",
"O c #FFC107",
"+ c white",
/* pixels */
"                                                                ",
"                                                                ",
"                                                                ",
"                                                                ",
"    ..............               ................               ",
"    ..............               ................               ",
"  ..OOOOOOOOOOoooo........    ...OOooooooOOooOOoo....           ",
"  ..OOOOOOOOOOoooo........    ...OOooooooOOooOOoo....           ",
"  ..OOOOOOOOoooooooooooooo....oooOOOOooOOooOOooOOOOOO....       ",
"  ..OOOOOOOOoooooooooooooo....oooOOOOooOOooOOooOOOOOO....       ",
"  ..OOOOOOOOOOooooooOOOOOOOO..oooooOOooOOooOOooOOOOooOOOO..     ",
"  ..OOOOOOOOOOooooooOOOOOOOO..oooooOOooOOooOOooOOOOooOOOO..     ",
"    ..OOOOOOOOooOOOOOOOOoooooo..oooOO..........OOooOOOOOO..     ",
"    ..OOOOOOOOooOOOOOOOOoooooo..oooOO..........OOooOOOOOO..     ",
"      ..OOOOOOOOOOOOOOOOOOoooooo.oo..          ....OOOOOO..     ",
"      ..OOOOOOOOOOOOOOOOOOoooooo.oo..          ....OOOOOO..     ",
"      ....OOOOOOooooooooooOOOOooO..        ..............       ",
"      ....OOOOOOooooooooooOOOOooO..        ..............       ",
"      ....OOOOOOOOOOOOooooooOOOOO..    ....OOOOOOoooooo..       ",
"      ....OOOOOOOOOOOOooooooOOOOO..    ....OOOOOOoooooo..       ",
"          ..OOOOOOOOOOOOOOOO...........OOOOXXXXXXOOOOoo..       ",
"          ..OOOOOOOOOOOOOOOO...........OOOOXXXXXXOOOOoo..       ",
"          ..OOOOOOOOOOOOOOOOOOOOOOOOOOOOOXXXXXXXXOOOOoo..       ",
"          ..OOOOOOOOOOOOOOOOOOOOOOOOOOOOOXXXXXXXXOOOOoo..       ",
"          ..OOOOOOooooOOOOOOOOOOOOOOOOOOOOOXXXXOOOOoooo..       ",
"          ..OOOOOOooooOOOOOOOOOOOOOOOOOOOOOXXXXOOOOoooo..       ",
"      ....OOOOOOOOOOOOOOOOOOOOOOOOOOOOOOOOOOOOOOOOOoo..         ",
"      ....OOOOOOOOOOOOOOOOOOOOOOOOOOOOOOOOOOOOOOOOOoo..         ",
"  ....OOOOOOOOOOooooOOOOOOOO..OOOOOOOOOOOOOOOOOOOoooo..         ",
"  ....OOOOOOOOOOooooOOOOOOOO..OOOOOOOOOOOOOOOOOOOoooo..         ",
"..OOOOOOOOOOOOooooooOOOO..OO..OOOOOOOOOOOOOOOOOoooooo..         ",
"..OOOOOOOOOOOOooooooOOOO..OO..OOOOOOOOOOOOOOOOOoooooo..         ",
"..OOOOOOOOOO....ooOOOOOO..OOOOOOO..OOOOOOOOOOooooooOO..         ",
"..OOOOOOOOOO....ooOOOOOO..OOOOOOO..OOOOOOOOOOooooooOO..         ",
"  ..OOOOOO....OOOOOOOOOOOOOOOO+++++..OOOOOOOOOOOOOOoo..         ",
"  ..OOOOOO....OOOOOOOOOOOOOOOO+++++..OOOOOOOOOOOOOOoo..         ",
"    ......  ..OOOOOOOOOOOOOO....+......OOOOOOOOOOoooo..         ",
"    ......  ..OOOOOOOOOOOOOO....+......OOOOOOOOOOoooo..         ",
"            ......OOOOOOOOOO...........OOOOOOOOoooooooo..       ",
"            ......OOOOOOOOOO...........OOOOOOOOoooooooo..       ",
"        ....OOOOoo..OOOOOOOOOO.......OOOOOOOOooooOOoooooo..     ",
"        ....OOOOoo..OOOOOOOOOO.......OOOOOOOOooooOOoooooo..     ",
"      ..ooOOOOOOoo....OOOOOOOOOOOOOOOOOOOOOOOOOOOOOOOoooooo..   ",
"      ..ooOOOOOOoo....OOOOOOOOOOOOOOOOOOOOOOOOOOOOOOOoooooo..   ",
"      ..ooOOOOOOoooo....OOOOOOOOOOOOOOOOOOOOOOOOOOOoooooooooo.. ",
"      ..ooOOOOOOoooo....OOOOOOOOOOOOOOOOOOOOOOOOOOOoooooooooo.. ",
"      ..OOooOOOOOO..  ..OOOO..OOO....++....OOOOoooooooooooooo.. ",
"      ..OOooOOOOOO..  ..OOOO..OOO....++....OOOOoooooooooooooo.. ",
"        ........        ..OOOOOOOOOOOOOoo....OOOOoooooooo....   ",
"        ........        ..OOOOOOOOOOOOOoo....OOOOoooooooo....   ",
"                          ..OOOO.OO......................       ",
"                          ..OOOO.OO......................       ",
"                            .........                           ",
"                            .........                           ",
"                                .  ..                           ",
"                                .  ..                           ",
"                                .  ..                           ",
"                                .  ..                           ",
"                                                                ",
"                                                                ",
"                                                                ",
"                                                                ",
"                                                                ",
"                                                                "
};
