/* XPM */
static char *_8be8024a0074196cb108d42478ef3beoLmLVuXe8OrJ9A9s[] = {
/* columns rows colors chars-per-pixel */
"64 64 6 1 ",
"  c None",
". c black",
"X c #E91E63",
"o c #FF9800",
"O c #FFC107",
"+ c white",
/* pixels */
"                                                                ",
"                                                                ",
"               ......                                           ",
"               ......                                           ",
"             ..oooooo..                                         ",
"             ..oooooo..                                         ",
"             ..oooooooo.                         ......         ",
"             ..oooooooo.                         ......         ",
"           ..ooooooooooo..            ...........OOOOOO.        ",
"           ..ooooooooooo..            ...........OOOOOO.        ",
"           ..ooooooooooooo............ooooooo....OOOOOO.        ",
"           ..ooooooooooooo............ooooooo....OOOOOO.        ",
"           ..ooooooooOOoooooooOOooooooooOOOoo....OOOOooO..      ",
"           ..ooooooooOOoooooooOOooooooooOOOoo....OOOOooO..      ",
"           ..ooOOooOOOOOooooOOooooooOOOOOOOoo......ooOOO..      ",
"           ..ooOOooOOOOOooooOOooooooOOOOOOOoo......ooOOO..      ",
"           ..OOOOooOOOOoooOOOOooooOOOOOOXXXOO..  ..OOOOOoo..    ",
"           ..OOOOOOOOOOoOOOOOOooOOOOOOXXXXXOO..    ..oooOO..    ",
"           ..OOOOOOOOOOoOOOOOOooOOOOOOXXXXXOO..    ..oooOO..    ",
"           ......OOOOOOOOOOOOOOOOOOOOOXXXXXOO..    ..OOOoo..    ",
"           ......OOOOOOOOOOOOOOOOOOOOOXXXXXOO..    ..OOOoo..    ",
"           ........OOOOOOOOOOOOOOOOOOOOOXOO..      ..oooOO..    ",
"           ........OOOOOOOOOOOOOOOOOOOOOXOO..      ..oooOO..    ",
"           ..oo....OOOOOOOOOOOOOOOOOOOOOOOO..      ..OOOoo..    ",
"           ..oo....OOOOOOOOOOOOOOOOOOOOOOOO..      ..OOOoo..    ",
"           ..OO..++OOOOO....OOOOOOOOOOOOO..        ..ooooo..    ",
"           ..OO..++OOOOO....OOOOOOOOOOOOO..        ..ooooo..    ",
"      .......OO....OOOO.......OOOOOOOOOOO..      ..OOOOOoo..    ",
"      .......OO....OOOO.......OOOOOOOOOOO..      ..OOOOOoo..    ",
"         ..OOOO....OOOO.....++..OOOOOOOOO........ooooooOOO..    ",
"         ..OOOO....OOOO.....++..OOOOOOOOO........ooooooOOO..    ",
"      .......OOOOOOOOOO...++++OOOOOOOOOOO..OOOO....ooooo..      ",
"      .......OOOOOOOOOO...++++OOOOOOOOOOO..OOOO....ooooo..      ",
"         ..OOOOOOOOOOOO.....++OOOOOOOOOOO..OOoooooo..ooo..      ",
"         ..OOOOOOOOOOOO.....++OOOOOOOOOOO..OOoooooo..ooo..      ",
"         ..OOOO....OOOOO....OOOO....OOOOO..OOOOoooooo...        ",
"         ..OOOO....OOOOO....OOOO....OOOOO..OOOOoooooo...        ",
"           ..OOOOOOOOOOOOOOOOOOOOOOOOOOOOOOooOOOOooooOO.        ",
"           ..OOOOOOOOOOOOOOOOOOOOOOOOOOOOOOooOOOOooooOO.        ",
"             ..OOOOOOOOOOOOOOO....OOOOOOOOOooooOOOOooOOo..      ",
"             ..OOOOOOOOOOOOOOO....OOOOOOOOOooooOOOOooOOo..      ",
"               ......OOOOOOOOOOOOOOOOOOOOOOooooOOOOOOOOo..      ",
"               ......OOOOOOOOOOOOOOOOOOOOOOooooOOOOOOOOo..      ",
"                   ....OOOOOOOOOOOOOOOooOOOOOooOOOOOOOOo..      ",
"                   ....OOOOOOOOOOOOOOOooOOOOOooOOOOOOOOo..      ",
"                 ..oo...OOOOOOOOooooOOooOOOOOooOOOOOOooo..      ",
"                 ..oo...OOOOOOOOooooOOooOOOOOooOOOOOOooo..      ",
"               ..OOooooo..OOOOooooooOOOOOOOOOooOOOOOOooooo..    ",
"             ..OOOOOOOOO..OOOO..ooOOOOOOOOOOOOOOOOOooooooo..    ",
"             ..OOOOOOOOO..OOOO..ooOOOOOOOOOOOOOOOOOooooooo..    ",
"             ..OOOOOOOOO........OOOOOOOOOOOOOOOOOOOOOOOoOO..    ",
"             ..OOOOOOOOO........OOOOOOOOOOOOOOOOOOOOOOOoOO..    ",
"             ..OOooOOOO.    ..OOOOOOOO.....OOOOOOOOOOOOOOO..    ",
"             ..OOooOOOO.    ..OOOOOOOO.....OOOOOOOOOOOOOOO..    ",
"             ..OOOOoooo.  ..OOOOOOOO..     ......OOOOOOOOO..    ",
"             ..OOOOoooo.  ..OOOOOOOO..     ......OOOOOOOOO..    ",
"               ........   ..OOOOOOOO..     ........OOOOOOO..    ",
"               ........   ..OOOOOOOO..     ........OOOOOOO..    ",
"                          ..OOOOOO..               ..OOOOO..    ",
"                          ..OOOOOO..               ..OOOOO..    ",
"                            ..OOOO..                 .....      ",
"                            ..OOOO..                 .....      ",
"                              ....                              ",
"                              ....                              "
};
