/* XPM */
static char *_72649c975e54b4cb1a0a8a1419e330052vpPwLTC6tV7Oza[] = {
/* columns rows colors chars-per-pixel */
"64 64 6 1 ",
"  c None",
". c black",
"X c #E91E63",
"o c #FF9800",
"O c #FFC107",
"+ c white",
/* pixels */
"                                                                ",
"                                                                ",
"                                           ......               ",
"                                           ......               ",
"                                         ..oooooo..             ",
"                                         ..oooooo..             ",
"         .....                         ..oooooooo..             ",
"         .....                         ..oooooooo..             ",
"       ..OOOOO............           ..oooooooooooo..           ",
"       ..OOOOO............           ..oooooooooooo..           ",
"       ..OOOOO....oooooooo...........oooooooooooooo..           ",
"       ..OOOOO....oooooooo...........oooooooooooooo..           ",
"     ..OOoOOOO....ooOOOOoooooooOOooooooooOOoooooooo..           ",
"     ..OOoOOOO....ooOOOOoooooooOOooooooooOOoooooooo..           ",
"     ..OOOoo......ooOOOOOOOOoooooOOooooOOOOOOooOOoo..           ",
"     ..OOOoo......ooOOOOOOOOoooooOOooooOOOOOOooOOoo..           ",
"   ..ooOOOOO..  ..OOXXXXOOOOOOoooOOOOooooOOOOooOOOO..           ",
"   ..OOooo..    ..OOXXXXXXOOOOOooOOOOOOooOOOOOOOOOO..           ",
"   ..OOooo..    ..OOXXXXXXOOOOOooOOOOOOooOOOOOOOOOO..           ",
"   ..ooOOO..    ..OOXXXXXXOOOOOOOOOOOOOOOOOOOOO......           ",
"   ..ooOOO..    ..OOXXXXXXOOOOOOOOOOOOOOOOOOOOO......           ",
"   ..OOooo..      ..OOXXOOOOOOOOOOOOOOOOOOOOO........           ",
"   ..OOooo..      ..OOXXOOOOOOOOOOOOOOOOOOOOO........           ",
"   ..ooOOO..      ..OOOOOOOOOOOOOOOOOOOOOOOOO....oo..           ",
"   ..ooOOO..      ..OOOOOOOOOOOOOOOOOOOOOOOOO....oo..           ",
"   ..ooooo..        ..OOOOOOOOOOOOO....OOOOOO++..OO..           ",
"   ..ooooo..        ..OOOOOOOOOOOOO....OOOOOO++..OO..           ",
"   ..ooOOOOO..      ..OOOOOOOOOOO........OOOO....OO.......      ",
"   ..ooOOOOO..      ..OOOOOOOOOOO........OOOO....OO.......      ",
"   ..OOOOooooo........OOOOOOOOO..++......OOOO....OOOO.          ",
"   ..OOOOooooo........OOOOOOOOO..++......OOOO....OOOO.          ",
"     ..ooooo....OOOO..OOOOOOOOOOO++++....OOOOOOOOOO.......      ",
"     ..ooooo....OOOO..OOOOOOOOOOO++++....OOOOOOOOOO.......      ",
"     ..ooo..ooooooOO..OOOOOOOOOOO++......OOOOOOOOOOOO.          ",
"     ..ooo..ooooooOO..OOOOOOOOOOO++......OOOOOOOOOOOO.          ",
"       ...ooooooOOOO..OOOOOO...OOOO....OOOOOO....OOOO.          ",
"       ...ooooooOOOO..OOOOOO...OOOO....OOOOOO....OOOO.          ",
"       ..OooooOOOOooOOOOOOOOOOOOOOOOOOOOOOOOOOOOOOO..           ",
"       ..OooooOOOOooOOOOOOOOOOOOOOOOOOOOOOOOOOOOOOO..           ",
"     ..ooOooOOOOooooOOOOOOOOOO...OOOOOOOOOOOOOOOO..             ",
"     ..ooOooOOOOooooOOOOOOOOOO...OOOOOOOOOOOOOOOO..             ",
"     ..ooOOOOOOOooooOOOOOOOOOOOOOOOOOOOOOOO......               ",
"     ..ooOOOOOOOooooOOOOOOOOOOOOOOOOOOOOOOO......               ",
"     ..ooOOOOOOOooOOOOOOooOOOOOOOOOOOOOOO....                   ",
"     ..ooOOOOOOOooOOOOOOooOOOOOOOOOOOOOOO....                   ",
"     ..oooOOOOOOooOOOOOOooOOoooOOOOOOOO....oo..                 ",
"     ..oooOOOOOOooOOOOOOooOOoooOOOOOOOO....oo..                 ",
"   ..oooooOOOOOOooOOOOOOOOOOoooooOOOO..ooooooOO..               ",
"   ..oooooooOOOOOOOOOOOOOOOOOOo..OOOO..OOOOOOOOOO..             ",
"   ..oooooooOOOOOOOOOOOOOOOOOOo..OOOO..OOOOOOOOOO..             ",
"   ..OOooOOOOOOOOOOOOOOOOOOOOOO........OOOOOOOOOO..             ",
"   ..OOooOOOOOOOOOOOOOOOOOOOOOO........OOOOOOOOOO..             ",
"   ..OOOOOOOOOOOOOOO......OOOOOOO..    ..OOOOooOO..             ",
"   ..OOOOOOOOOOOOOOO......OOOOOOO..    ..OOOOooOO..             ",
"   ..OOOOOOOOO......      ..OOOOOOO..  ..ooooOOOO..             ",
"   ..OOOOOOOOO......      ..OOOOOOO..  ..ooooOOOO..             ",
"   ..OOOOOOO........      ..OOOOOOO..    ........               ",
"   ..OOOOOOO........      ..OOOOOOO..    ........               ",
"   ..OOOOO..                ..OOOOO..                           ",
"   ..OOOOO..                ..OOOOO..                           ",
"     .....                  ..OOO..                             ",
"     .....                  ..OOO..                             ",
"                              ...                               ",
"                              ...                               "
};
